<svg width="26" height="26" viewBox="0 0 26 26" fill="none" xmlns="http://www.w3.org/2000/svg">
<g clip-path="url(#clip0_63_5911)">
<path fill-rule="evenodd" clip-rule="evenodd" d="M19.8027 12.4736C19.8013 12.4717 19.8007 12.4692 19.8011 12.4668L21.3928 3.18592C21.3935 3.18165 21.3972 3.17853 21.4015 3.17853H21.9053C21.9092 3.17853 21.9126 3.18105 21.9137 3.18475L25.4996 14.5384C25.5007 14.5419 25.4995 14.5458 25.4966 14.5481L22.8527 16.6123C22.8487 16.6154 22.843 16.6146 22.8401 16.6105L19.8027 12.4736ZM0.5 18.6262C0.5 18.63 0.502475 18.6334 0.506134 18.6346L5.95624 20.4166C5.95887 20.4175 5.96179 20.4171 5.96408 20.4155L18.1463 12.0052C18.1484 12.0038 18.1498 12.0016 18.1501 11.9991L19.4565 3.23351C19.4573 3.22813 19.4531 3.2233 19.4477 3.2233H8.65724C8.65456 3.2233 8.65208 3.22448 8.65037 3.22652L0.502048 13.0562C0.500724 13.0578 0.5 13.0598 0.5 13.0619V18.6262ZM8.22732 20.8707L14.1815 22.8211C14.1841 22.822 14.1871 22.8215 14.1894 22.8199L21.2782 17.735C21.2821 17.7323 21.2831 17.7268 21.2804 17.7228L18.623 13.7684C18.6203 13.7642 18.6147 13.7632 18.6106 13.766L8.22732 20.8707Z" fill="white"/>
</g>
<defs>
<clipPath id="clip0_63_5911">
<rect width="25" height="25" fill="white" transform="translate(0.5 0.5)"/>
</clipPath>
</defs>
</svg>
